<mxfile host="www.draw.io" modified="2019-11-16T03:47:14.881Z" agent="Mozilla/5.0 (Macintosh; Intel Mac OS X 10_14_6) AppleWebKit/605.1.15 (KHTML, like Gecko) Version/13.0.2 Safari/605.1.15" etag="GiBpMroRC62EWne9to0h" version="12.2.6" type="github" pages="1">
  <diagram id="6IozIT32LXbuVwREie7d" name="Page-1">
    <mxGraphModel dx="932" dy="569" grid="1" gridSize="10" guides="1" tooltips="1" connect="1" arrows="1" fold="1" page="1" pageScale="1" pageWidth="3300" pageHeight="4681" math="0" shadow="0">
      <root>
        <mxCell id="0"/>
        <mxCell id="1" parent="0"/>
        <mxCell id="wY5ASRHFbbLCHAGwUMeS-66" style="edgeStyle=orthogonalEdgeStyle;rounded=0;orthogonalLoop=1;jettySize=auto;html=1;exitX=0.5;exitY=1;exitDx=0;exitDy=0;endArrow=none;endFill=0;strokeWidth=2;fontSize=13;fillColor=#dae8fc;strokeColor=#6c8ebf;" edge="1" parent="1" source="jnVJirCMvpuZ7hxpCEFe-1">
          <mxGeometry relative="1" as="geometry">
            <mxPoint x="700" y="440" as="targetPoint"/>
          </mxGeometry>
        </mxCell>
        <mxCell id="jnVJirCMvpuZ7hxpCEFe-1" value="区块链服务平台" style="rounded=0;whiteSpace=wrap;html=1;strokeWidth=2;fillColor=#ffe6cc;strokeColor=#d79b00;fontSize=13;" parent="1" vertex="1">
          <mxGeometry x="640" y="361" width="120" height="45" as="geometry"/>
        </mxCell>
        <mxCell id="jnVJirCMvpuZ7hxpCEFe-11" value="" style="endArrow=none;html=1;strokeWidth=2;fontSize=13;fillColor=#dae8fc;strokeColor=#6c8ebf;" parent="1" edge="1">
          <mxGeometry width="50" height="50" relative="1" as="geometry">
            <mxPoint x="504.5" y="80" as="sourcePoint"/>
            <mxPoint x="504.5" y="55" as="targetPoint"/>
          </mxGeometry>
        </mxCell>
        <mxCell id="jnVJirCMvpuZ7hxpCEFe-12" value="" style="endArrow=none;html=1;strokeWidth=2;fontSize=13;fillColor=#dae8fc;strokeColor=#6c8ebf;" parent="1" edge="1">
          <mxGeometry width="50" height="50" relative="1" as="geometry">
            <mxPoint x="142" y="440" as="sourcePoint"/>
            <mxPoint x="1297" y="440" as="targetPoint"/>
          </mxGeometry>
        </mxCell>
        <mxCell id="jnVJirCMvpuZ7hxpCEFe-15" value="" style="endArrow=none;html=1;strokeWidth=2;fontSize=13;fillColor=#dae8fc;strokeColor=#6c8ebf;" parent="1" edge="1">
          <mxGeometry width="50" height="50" relative="1" as="geometry">
            <mxPoint x="123" y="113" as="sourcePoint"/>
            <mxPoint x="123" y="88" as="targetPoint"/>
          </mxGeometry>
        </mxCell>
        <mxCell id="jnVJirCMvpuZ7hxpCEFe-16" value="" style="endArrow=none;html=1;strokeWidth=2;fontSize=13;fillColor=#dae8fc;strokeColor=#6c8ebf;" parent="1" edge="1">
          <mxGeometry width="50" height="50" relative="1" as="geometry">
            <mxPoint x="855" y="106" as="sourcePoint"/>
            <mxPoint x="855" y="81" as="targetPoint"/>
          </mxGeometry>
        </mxCell>
        <mxCell id="jnVJirCMvpuZ7hxpCEFe-17" value="" style="endArrow=none;html=1;strokeWidth=2;fontSize=13;fillColor=#dae8fc;strokeColor=#6c8ebf;" parent="1" edge="1">
          <mxGeometry width="50" height="50" relative="1" as="geometry">
            <mxPoint x="253" y="107" as="sourcePoint"/>
            <mxPoint x="253" y="82" as="targetPoint"/>
          </mxGeometry>
        </mxCell>
        <mxCell id="jnVJirCMvpuZ7hxpCEFe-18" value="" style="endArrow=none;html=1;strokeWidth=2;fontSize=13;fillColor=#dae8fc;strokeColor=#6c8ebf;" parent="1" edge="1">
          <mxGeometry width="50" height="50" relative="1" as="geometry">
            <mxPoint x="352.5" y="107" as="sourcePoint"/>
            <mxPoint x="352.5" y="82" as="targetPoint"/>
          </mxGeometry>
        </mxCell>
        <mxCell id="jnVJirCMvpuZ7hxpCEFe-19" value="" style="endArrow=none;html=1;strokeWidth=2;fontSize=13;fillColor=#dae8fc;strokeColor=#6c8ebf;" parent="1" edge="1">
          <mxGeometry width="50" height="50" relative="1" as="geometry">
            <mxPoint x="452" y="107" as="sourcePoint"/>
            <mxPoint x="452" y="82" as="targetPoint"/>
          </mxGeometry>
        </mxCell>
        <mxCell id="jnVJirCMvpuZ7hxpCEFe-20" value="" style="endArrow=none;html=1;strokeWidth=2;fontSize=13;fillColor=#dae8fc;strokeColor=#6c8ebf;" parent="1" edge="1">
          <mxGeometry width="50" height="50" relative="1" as="geometry">
            <mxPoint x="551.5" y="107" as="sourcePoint"/>
            <mxPoint x="551.5" y="82" as="targetPoint"/>
          </mxGeometry>
        </mxCell>
        <mxCell id="jnVJirCMvpuZ7hxpCEFe-21" value="" style="endArrow=none;html=1;strokeWidth=2;fontSize=13;fillColor=#dae8fc;strokeColor=#6c8ebf;" parent="1" edge="1">
          <mxGeometry width="50" height="50" relative="1" as="geometry">
            <mxPoint x="651" y="107" as="sourcePoint"/>
            <mxPoint x="651" y="82" as="targetPoint"/>
          </mxGeometry>
        </mxCell>
        <mxCell id="jnVJirCMvpuZ7hxpCEFe-22" value="" style="endArrow=none;html=1;strokeWidth=2;fontSize=13;fillColor=#dae8fc;strokeColor=#6c8ebf;" parent="1" edge="1">
          <mxGeometry width="50" height="50" relative="1" as="geometry">
            <mxPoint x="750.5" y="107" as="sourcePoint"/>
            <mxPoint x="750.5" y="82" as="targetPoint"/>
          </mxGeometry>
        </mxCell>
        <mxCell id="jnVJirCMvpuZ7hxpCEFe-23" value="" style="endArrow=none;html=1;strokeWidth=2;fontSize=13;fillColor=#dae8fc;strokeColor=#6c8ebf;" parent="1" edge="1">
          <mxGeometry width="50" height="50" relative="1" as="geometry">
            <mxPoint x="148.5" y="113" as="sourcePoint"/>
            <mxPoint x="148.5" y="88" as="targetPoint"/>
          </mxGeometry>
        </mxCell>
        <mxCell id="wY5ASRHFbbLCHAGwUMeS-50" value="" style="group" vertex="1" connectable="0" parent="1">
          <mxGeometry x="250" y="473" width="120" height="269" as="geometry"/>
        </mxCell>
        <mxCell id="jnVJirCMvpuZ7hxpCEFe-7" value="事件管理" style="rounded=0;whiteSpace=wrap;html=1;strokeWidth=2;fillColor=#dae8fc;strokeColor=#6c8ebf;fontSize=13;" parent="wY5ASRHFbbLCHAGwUMeS-50" vertex="1">
          <mxGeometry width="120" height="45" as="geometry"/>
        </mxCell>
        <mxCell id="wY5ASRHFbbLCHAGwUMeS-29" value="事件注册注销" style="rounded=0;whiteSpace=wrap;html=1;strokeWidth=2;fontSize=13;fillColor=#d5e8d4;strokeColor=#82b366;" vertex="1" parent="wY5ASRHFbbLCHAGwUMeS-50">
          <mxGeometry x="42" y="109" width="27" height="160" as="geometry"/>
        </mxCell>
        <mxCell id="wY5ASRHFbbLCHAGwUMeS-30" style="edgeStyle=orthogonalEdgeStyle;rounded=0;orthogonalLoop=1;jettySize=auto;html=1;exitX=0.5;exitY=0;exitDx=0;exitDy=0;entryX=0.5;entryY=1;entryDx=0;entryDy=0;endArrow=none;endFill=0;strokeWidth=2;fontSize=13;fillColor=#d5e8d4;strokeColor=#82b366;" edge="1" parent="wY5ASRHFbbLCHAGwUMeS-50">
          <mxGeometry relative="1" as="geometry">
            <mxPoint x="55" y="109" as="sourcePoint"/>
            <mxPoint x="55" y="44.29411764705901" as="targetPoint"/>
          </mxGeometry>
        </mxCell>
        <mxCell id="wY5ASRHFbbLCHAGwUMeS-51" value="" style="group" vertex="1" connectable="0" parent="1">
          <mxGeometry x="565.5" y="473" width="120" height="266" as="geometry"/>
        </mxCell>
        <mxCell id="jnVJirCMvpuZ7hxpCEFe-8" value="区块链代理" style="rounded=0;whiteSpace=wrap;html=1;strokeWidth=2;fillColor=#dae8fc;strokeColor=#6c8ebf;fontSize=13;" parent="wY5ASRHFbbLCHAGwUMeS-51" vertex="1">
          <mxGeometry width="120" height="45" as="geometry"/>
        </mxCell>
        <mxCell id="wY5ASRHFbbLCHAGwUMeS-27" style="edgeStyle=orthogonalEdgeStyle;rounded=0;orthogonalLoop=1;jettySize=auto;html=1;exitX=0.5;exitY=0;exitDx=0;exitDy=0;entryX=0.5;entryY=1;entryDx=0;entryDy=0;endArrow=none;endFill=0;strokeWidth=2;fontSize=13;fillColor=#d5e8d4;strokeColor=#82b366;" edge="1" parent="wY5ASRHFbbLCHAGwUMeS-51" source="jnVJirCMvpuZ7hxpCEFe-24" target="jnVJirCMvpuZ7hxpCEFe-8">
          <mxGeometry relative="1" as="geometry"/>
        </mxCell>
        <mxCell id="jnVJirCMvpuZ7hxpCEFe-24" value="区块链代理对接应用" style="rounded=0;whiteSpace=wrap;html=1;strokeWidth=2;fontSize=13;fillColor=#d5e8d4;strokeColor=#82b366;" parent="wY5ASRHFbbLCHAGwUMeS-51" vertex="1">
          <mxGeometry x="46.5" y="106" width="27" height="160" as="geometry"/>
        </mxCell>
        <mxCell id="wY5ASRHFbbLCHAGwUMeS-52" value="" style="group" vertex="1" connectable="0" parent="1">
          <mxGeometry x="671" y="473" width="205.5" height="266" as="geometry"/>
        </mxCell>
        <mxCell id="wY5ASRHFbbLCHAGwUMeS-40" style="edgeStyle=orthogonalEdgeStyle;rounded=0;orthogonalLoop=1;jettySize=auto;html=1;exitX=0.5;exitY=1;exitDx=0;exitDy=0;endArrow=none;endFill=0;strokeWidth=2;fontSize=13;fillColor=#d5e8d4;strokeColor=#82b366;" edge="1" parent="wY5ASRHFbbLCHAGwUMeS-52" source="jnVJirCMvpuZ7hxpCEFe-10">
          <mxGeometry relative="1" as="geometry">
            <mxPoint x="113.38235294117658" y="76.41176470588243" as="targetPoint"/>
          </mxGeometry>
        </mxCell>
        <mxCell id="jnVJirCMvpuZ7hxpCEFe-10" value="区块链底层支持" style="rounded=0;whiteSpace=wrap;html=1;strokeWidth=2;fillColor=#dae8fc;strokeColor=#6c8ebf;fontSize=13;" parent="wY5ASRHFbbLCHAGwUMeS-52" vertex="1">
          <mxGeometry x="50.5" width="120" height="45" as="geometry"/>
        </mxCell>
        <mxCell id="wY5ASRHFbbLCHAGwUMeS-44" style="edgeStyle=orthogonalEdgeStyle;rounded=0;orthogonalLoop=1;jettySize=auto;html=1;exitX=0.5;exitY=0;exitDx=0;exitDy=0;endArrow=none;endFill=0;strokeWidth=2;fontSize=13;fillColor=#d5e8d4;strokeColor=#82b366;" edge="1" parent="wY5ASRHFbbLCHAGwUMeS-52" source="jnVJirCMvpuZ7hxpCEFe-47">
          <mxGeometry relative="1" as="geometry">
            <mxPoint x="68.38235294117658" y="76.41176470588243" as="targetPoint"/>
          </mxGeometry>
        </mxCell>
        <mxCell id="jnVJirCMvpuZ7hxpCEFe-47" value="CFCA支持" style="rounded=0;whiteSpace=wrap;html=1;strokeWidth=2;fontSize=13;fillColor=#d5e8d4;strokeColor=#82b366;" parent="wY5ASRHFbbLCHAGwUMeS-52" vertex="1">
          <mxGeometry x="49.5" y="106" width="37" height="160" as="geometry"/>
        </mxCell>
        <mxCell id="wY5ASRHFbbLCHAGwUMeS-43" style="edgeStyle=orthogonalEdgeStyle;rounded=0;orthogonalLoop=1;jettySize=auto;html=1;exitX=0.5;exitY=0;exitDx=0;exitDy=0;endArrow=none;endFill=0;strokeWidth=2;fontSize=13;fillColor=#d5e8d4;strokeColor=#82b366;" edge="1" parent="wY5ASRHFbbLCHAGwUMeS-52" source="jnVJirCMvpuZ7hxpCEFe-54">
          <mxGeometry relative="1" as="geometry">
            <mxPoint x="18.970588235294144" y="76.41176470588243" as="targetPoint"/>
          </mxGeometry>
        </mxCell>
        <mxCell id="jnVJirCMvpuZ7hxpCEFe-54" value="Fabric多版本兼容" style="rounded=0;whiteSpace=wrap;html=1;strokeWidth=2;fontSize=13;fillColor=#d5e8d4;strokeColor=#82b366;" parent="wY5ASRHFbbLCHAGwUMeS-52" vertex="1">
          <mxGeometry y="106" width="37" height="160" as="geometry"/>
        </mxCell>
        <mxCell id="wY5ASRHFbbLCHAGwUMeS-36" style="edgeStyle=orthogonalEdgeStyle;rounded=0;orthogonalLoop=1;jettySize=auto;html=1;exitX=0.5;exitY=0;exitDx=0;exitDy=0;endArrow=none;endFill=0;strokeWidth=2;fontSize=13;fillColor=#d5e8d4;strokeColor=#82b366;" edge="1" parent="wY5ASRHFbbLCHAGwUMeS-52" source="jnVJirCMvpuZ7hxpCEFe-45">
          <mxGeometry relative="1" as="geometry">
            <mxPoint x="191.38235294117658" y="75.82352941176475" as="targetPoint"/>
          </mxGeometry>
        </mxCell>
        <mxCell id="jnVJirCMvpuZ7hxpCEFe-45" value="跨链交互" style="rounded=0;whiteSpace=wrap;html=1;strokeWidth=2;fontSize=13;fillColor=#d5e8d4;strokeColor=#82b366;" parent="wY5ASRHFbbLCHAGwUMeS-52" vertex="1">
          <mxGeometry x="178.5" y="106" width="27" height="160" as="geometry"/>
        </mxCell>
        <mxCell id="wY5ASRHFbbLCHAGwUMeS-34" style="edgeStyle=orthogonalEdgeStyle;rounded=0;orthogonalLoop=1;jettySize=auto;html=1;exitX=0.5;exitY=0;exitDx=0;exitDy=0;endArrow=none;endFill=0;strokeWidth=2;fontSize=13;fillColor=#d5e8d4;strokeColor=#82b366;" edge="1" parent="wY5ASRHFbbLCHAGwUMeS-52" source="jnVJirCMvpuZ7hxpCEFe-50">
          <mxGeometry relative="1" as="geometry">
            <mxPoint x="112.55882352941171" y="75.82352941176475" as="targetPoint"/>
          </mxGeometry>
        </mxCell>
        <mxCell id="jnVJirCMvpuZ7hxpCEFe-50" value="数据加密与国密实现" style="rounded=0;whiteSpace=wrap;html=1;strokeWidth=2;fontSize=13;fillColor=#d5e8d4;strokeColor=#82b366;" parent="wY5ASRHFbbLCHAGwUMeS-52" vertex="1">
          <mxGeometry x="99.5" y="106" width="27" height="160" as="geometry"/>
        </mxCell>
        <mxCell id="wY5ASRHFbbLCHAGwUMeS-35" style="edgeStyle=orthogonalEdgeStyle;rounded=0;orthogonalLoop=1;jettySize=auto;html=1;exitX=0.5;exitY=0;exitDx=0;exitDy=0;endArrow=none;endFill=0;strokeWidth=2;fontSize=13;fillColor=#d5e8d4;strokeColor=#82b366;" edge="1" parent="wY5ASRHFbbLCHAGwUMeS-52" source="jnVJirCMvpuZ7hxpCEFe-53">
          <mxGeometry relative="1" as="geometry">
            <mxPoint x="152.5588235294117" y="75.82352941176475" as="targetPoint"/>
          </mxGeometry>
        </mxCell>
        <mxCell id="jnVJirCMvpuZ7hxpCEFe-53" value="可配置共识机制" style="rounded=0;whiteSpace=wrap;html=1;strokeWidth=2;fontSize=13;fillColor=#d5e8d4;strokeColor=#82b366;" parent="wY5ASRHFbbLCHAGwUMeS-52" vertex="1">
          <mxGeometry x="139" y="106" width="27" height="160" as="geometry"/>
        </mxCell>
        <mxCell id="wY5ASRHFbbLCHAGwUMeS-31" value="" style="endArrow=none;html=1;strokeWidth=2;fontSize=13;fillColor=#d5e8d4;strokeColor=#82b366;" edge="1" parent="wY5ASRHFbbLCHAGwUMeS-52">
          <mxGeometry width="50" height="50" relative="1" as="geometry">
            <mxPoint x="18.5" y="76" as="sourcePoint"/>
            <mxPoint x="193.5" y="76" as="targetPoint"/>
          </mxGeometry>
        </mxCell>
        <mxCell id="wY5ASRHFbbLCHAGwUMeS-53" value="" style="group" vertex="1" connectable="0" parent="1">
          <mxGeometry x="1040" y="473" width="120" height="266" as="geometry"/>
        </mxCell>
        <mxCell id="jnVJirCMvpuZ7hxpCEFe-9" value="基础资源管理" style="rounded=0;whiteSpace=wrap;html=1;strokeWidth=2;fillColor=#dae8fc;strokeColor=#6c8ebf;fontSize=13;" parent="wY5ASRHFbbLCHAGwUMeS-53" vertex="1">
          <mxGeometry width="120" height="45" as="geometry"/>
        </mxCell>
        <mxCell id="wY5ASRHFbbLCHAGwUMeS-41" style="edgeStyle=orthogonalEdgeStyle;rounded=0;orthogonalLoop=1;jettySize=auto;html=1;exitX=0.5;exitY=0;exitDx=0;exitDy=0;entryX=0.25;entryY=1;entryDx=0;entryDy=0;endArrow=none;endFill=0;strokeWidth=2;fontSize=13;fillColor=#d5e8d4;strokeColor=#82b366;" edge="1" parent="wY5ASRHFbbLCHAGwUMeS-53" source="jnVJirCMvpuZ7hxpCEFe-48" target="jnVJirCMvpuZ7hxpCEFe-9">
          <mxGeometry relative="1" as="geometry"/>
        </mxCell>
        <mxCell id="jnVJirCMvpuZ7hxpCEFe-48" value="k8s主机管理" style="rounded=0;whiteSpace=wrap;html=1;strokeWidth=2;fontSize=13;fillColor=#d5e8d4;strokeColor=#82b366;" parent="wY5ASRHFbbLCHAGwUMeS-53" vertex="1">
          <mxGeometry x="16" y="106" width="27" height="160" as="geometry"/>
        </mxCell>
        <mxCell id="wY5ASRHFbbLCHAGwUMeS-42" style="edgeStyle=orthogonalEdgeStyle;rounded=0;orthogonalLoop=1;jettySize=auto;html=1;exitX=0.5;exitY=0;exitDx=0;exitDy=0;entryX=0.75;entryY=1;entryDx=0;entryDy=0;endArrow=none;endFill=0;strokeWidth=2;fontSize=13;fillColor=#d5e8d4;strokeColor=#82b366;" edge="1" parent="wY5ASRHFbbLCHAGwUMeS-53" source="jnVJirCMvpuZ7hxpCEFe-51" target="jnVJirCMvpuZ7hxpCEFe-9">
          <mxGeometry relative="1" as="geometry"/>
        </mxCell>
        <mxCell id="jnVJirCMvpuZ7hxpCEFe-51" value="k8s网络管理" style="rounded=0;whiteSpace=wrap;html=1;strokeWidth=2;fontSize=13;fillColor=#d5e8d4;strokeColor=#82b366;" parent="wY5ASRHFbbLCHAGwUMeS-53" vertex="1">
          <mxGeometry x="76" y="106" width="27" height="160" as="geometry"/>
        </mxCell>
        <mxCell id="wY5ASRHFbbLCHAGwUMeS-58" style="edgeStyle=orthogonalEdgeStyle;rounded=0;orthogonalLoop=1;jettySize=auto;html=1;exitX=0.5;exitY=0;exitDx=0;exitDy=0;endArrow=none;endFill=0;strokeWidth=2;fontSize=13;fillColor=#dae8fc;strokeColor=#6c8ebf;" edge="1" parent="1" source="jnVJirCMvpuZ7hxpCEFe-4">
          <mxGeometry relative="1" as="geometry">
            <mxPoint x="143" y="440" as="targetPoint"/>
          </mxGeometry>
        </mxCell>
        <mxCell id="jnVJirCMvpuZ7hxpCEFe-4" value="区块链网络管理" style="rounded=0;whiteSpace=wrap;html=1;strokeWidth=2;fillColor=#dae8fc;strokeColor=#6c8ebf;fontSize=13;" parent="1" vertex="1">
          <mxGeometry x="83" y="473" width="120" height="45" as="geometry"/>
        </mxCell>
        <mxCell id="wY5ASRHFbbLCHAGwUMeS-20" style="edgeStyle=orthogonalEdgeStyle;rounded=0;orthogonalLoop=1;jettySize=auto;html=1;exitX=0.5;exitY=0;exitDx=0;exitDy=0;endArrow=none;endFill=0;strokeWidth=2;fontSize=13;fillColor=#d5e8d4;strokeColor=#82b366;" edge="1" parent="1" source="jnVJirCMvpuZ7hxpCEFe-35">
          <mxGeometry relative="1" as="geometry">
            <mxPoint x="221.29411764705878" y="551.8235294117648" as="targetPoint"/>
          </mxGeometry>
        </mxCell>
        <mxCell id="jnVJirCMvpuZ7hxpCEFe-35" value="链升级支持" style="rounded=0;whiteSpace=wrap;html=1;strokeWidth=2;fontSize=13;fillColor=#d5e8d4;strokeColor=#82b366;" parent="1" vertex="1">
          <mxGeometry x="207.5" y="582" width="27" height="160" as="geometry"/>
        </mxCell>
        <mxCell id="wY5ASRHFbbLCHAGwUMeS-19" style="edgeStyle=orthogonalEdgeStyle;rounded=0;orthogonalLoop=1;jettySize=auto;html=1;exitX=0.5;exitY=0;exitDx=0;exitDy=0;endArrow=none;endFill=0;strokeWidth=2;fontSize=13;fillColor=#d5e8d4;strokeColor=#82b366;" edge="1" parent="1" source="jnVJirCMvpuZ7hxpCEFe-36">
          <mxGeometry relative="1" as="geometry">
            <mxPoint x="181.29411764705878" y="551.8235294117648" as="targetPoint"/>
          </mxGeometry>
        </mxCell>
        <mxCell id="jnVJirCMvpuZ7hxpCEFe-36" value="已有链的接管" style="rounded=0;whiteSpace=wrap;html=1;strokeWidth=2;fontSize=13;fillColor=#d5e8d4;strokeColor=#82b366;" parent="1" vertex="1">
          <mxGeometry x="168" y="582" width="27" height="160" as="geometry"/>
        </mxCell>
        <mxCell id="wY5ASRHFbbLCHAGwUMeS-18" style="edgeStyle=orthogonalEdgeStyle;rounded=0;orthogonalLoop=1;jettySize=auto;html=1;exitX=0.5;exitY=0;exitDx=0;exitDy=0;endArrow=none;endFill=0;strokeWidth=2;fontSize=13;fillColor=#d5e8d4;strokeColor=#82b366;" edge="1" parent="1" source="jnVJirCMvpuZ7hxpCEFe-37">
          <mxGeometry relative="1" as="geometry">
            <mxPoint x="142.47058823529414" y="551.8235294117648" as="targetPoint"/>
          </mxGeometry>
        </mxCell>
        <mxCell id="jnVJirCMvpuZ7hxpCEFe-37" value="组织成员管理" style="rounded=0;whiteSpace=wrap;html=1;strokeWidth=2;fontSize=13;fillColor=#d5e8d4;strokeColor=#82b366;" parent="1" vertex="1">
          <mxGeometry x="128.5" y="582" width="27" height="160" as="geometry"/>
        </mxCell>
        <mxCell id="wY5ASRHFbbLCHAGwUMeS-17" style="edgeStyle=orthogonalEdgeStyle;rounded=0;orthogonalLoop=1;jettySize=auto;html=1;exitX=0.5;exitY=0;exitDx=0;exitDy=0;endArrow=none;endFill=0;strokeWidth=2;fontSize=13;fillColor=#d5e8d4;strokeColor=#82b366;" edge="1" parent="1" source="jnVJirCMvpuZ7hxpCEFe-38">
          <mxGeometry relative="1" as="geometry">
            <mxPoint x="102.47058823529414" y="551.8235294117648" as="targetPoint"/>
          </mxGeometry>
        </mxCell>
        <mxCell id="jnVJirCMvpuZ7hxpCEFe-38" value="新组织加入网络审批" style="rounded=0;whiteSpace=wrap;html=1;strokeWidth=2;fontSize=13;fillColor=#d5e8d4;strokeColor=#82b366;" parent="1" vertex="1">
          <mxGeometry x="89" y="582" width="27" height="160" as="geometry"/>
        </mxCell>
        <mxCell id="wY5ASRHFbbLCHAGwUMeS-16" style="edgeStyle=orthogonalEdgeStyle;rounded=0;orthogonalLoop=1;jettySize=auto;html=1;exitX=0.5;exitY=0;exitDx=0;exitDy=0;endArrow=none;endFill=0;strokeWidth=2;fontSize=13;fillColor=#d5e8d4;strokeColor=#82b366;" edge="1" parent="1" source="jnVJirCMvpuZ7hxpCEFe-39">
          <mxGeometry relative="1" as="geometry">
            <mxPoint x="62.470588235294144" y="551.8235294117648" as="targetPoint"/>
          </mxGeometry>
        </mxCell>
        <mxCell id="jnVJirCMvpuZ7hxpCEFe-39" value="新组织加入区块链网络" style="rounded=0;whiteSpace=wrap;html=1;strokeWidth=2;fontSize=13;fillColor=#d5e8d4;strokeColor=#82b366;" parent="1" vertex="1">
          <mxGeometry x="49.5" y="582" width="27" height="160" as="geometry"/>
        </mxCell>
        <mxCell id="wY5ASRHFbbLCHAGwUMeS-15" style="edgeStyle=orthogonalEdgeStyle;rounded=0;orthogonalLoop=1;jettySize=auto;html=1;exitX=0.5;exitY=0;exitDx=0;exitDy=0;endArrow=none;endFill=0;strokeWidth=2;fontSize=13;fillColor=#d5e8d4;strokeColor=#82b366;" edge="1" parent="1" source="jnVJirCMvpuZ7hxpCEFe-40">
          <mxGeometry relative="1" as="geometry">
            <mxPoint x="23.647058823529505" y="551.8235294117648" as="targetPoint"/>
          </mxGeometry>
        </mxCell>
        <mxCell id="jnVJirCMvpuZ7hxpCEFe-40" value="区块链网络的创建" style="rounded=0;whiteSpace=wrap;html=1;strokeWidth=2;fontSize=13;fillColor=#d5e8d4;strokeColor=#82b366;" parent="1" vertex="1">
          <mxGeometry x="10" y="582" width="27" height="160" as="geometry"/>
        </mxCell>
        <mxCell id="wY5ASRHFbbLCHAGwUMeS-24" style="edgeStyle=orthogonalEdgeStyle;rounded=0;orthogonalLoop=1;jettySize=auto;html=1;exitX=0.5;exitY=0;exitDx=0;exitDy=0;endArrow=none;endFill=0;strokeWidth=2;fontSize=13;fillColor=#d5e8d4;strokeColor=#82b366;" edge="1" parent="1" source="jnVJirCMvpuZ7hxpCEFe-56">
          <mxGeometry relative="1" as="geometry">
            <mxPoint x="264.47058823529414" y="551.8235294117648" as="targetPoint"/>
          </mxGeometry>
        </mxCell>
        <mxCell id="jnVJirCMvpuZ7hxpCEFe-56" value="已有链的托管" style="rounded=0;whiteSpace=wrap;html=1;strokeWidth=2;fontSize=13;fillColor=#d5e8d4;strokeColor=#82b366;" parent="1" vertex="1">
          <mxGeometry x="250.5" y="582" width="27" height="160" as="geometry"/>
        </mxCell>
        <mxCell id="wY5ASRHFbbLCHAGwUMeS-14" value="" style="endArrow=none;html=1;strokeWidth=2;fontSize=13;fillColor=#d5e8d4;strokeColor=#82b366;" edge="1" parent="1">
          <mxGeometry width="50" height="50" relative="1" as="geometry">
            <mxPoint x="22.5" y="552" as="sourcePoint"/>
            <mxPoint x="265" y="552" as="targetPoint"/>
          </mxGeometry>
        </mxCell>
        <mxCell id="wY5ASRHFbbLCHAGwUMeS-25" style="edgeStyle=orthogonalEdgeStyle;rounded=0;orthogonalLoop=1;jettySize=auto;html=1;endArrow=none;endFill=0;strokeWidth=2;fontSize=13;fillColor=#d5e8d4;strokeColor=#82b366;" edge="1" parent="1">
          <mxGeometry relative="1" as="geometry">
            <mxPoint x="141.5" y="551.5882352941176" as="targetPoint"/>
            <mxPoint x="142" y="521" as="sourcePoint"/>
          </mxGeometry>
        </mxCell>
        <mxCell id="wY5ASRHFbbLCHAGwUMeS-56" value="" style="group" vertex="1" connectable="0" parent="1">
          <mxGeometry x="880" y="473" width="120" height="266" as="geometry"/>
        </mxCell>
        <mxCell id="wY5ASRHFbbLCHAGwUMeS-45" style="edgeStyle=orthogonalEdgeStyle;rounded=0;orthogonalLoop=1;jettySize=auto;html=1;exitX=0.5;exitY=1;exitDx=0;exitDy=0;endArrow=none;endFill=0;strokeWidth=2;fontSize=13;fillColor=#d5e8d4;strokeColor=#82b366;" edge="1" parent="wY5ASRHFbbLCHAGwUMeS-56" source="jnVJirCMvpuZ7hxpCEFe-5">
          <mxGeometry relative="1" as="geometry">
            <mxPoint x="60.41176470588243" y="85.99999999999977" as="targetPoint"/>
          </mxGeometry>
        </mxCell>
        <mxCell id="jnVJirCMvpuZ7hxpCEFe-5" value="通道管理" style="rounded=0;whiteSpace=wrap;html=1;strokeWidth=2;fillColor=#dae8fc;strokeColor=#6c8ebf;fontSize=13;" parent="wY5ASRHFbbLCHAGwUMeS-56" vertex="1">
          <mxGeometry width="120" height="45" as="geometry"/>
        </mxCell>
        <mxCell id="wY5ASRHFbbLCHAGwUMeS-23" style="edgeStyle=orthogonalEdgeStyle;rounded=0;orthogonalLoop=1;jettySize=auto;html=1;exitX=0.5;exitY=0;exitDx=0;exitDy=0;endArrow=none;endFill=0;strokeWidth=2;fontSize=13;fillColor=#d5e8d4;strokeColor=#82b366;" edge="1" parent="wY5ASRHFbbLCHAGwUMeS-56" source="jnVJirCMvpuZ7hxpCEFe-32">
          <mxGeometry relative="1" as="geometry">
            <mxPoint x="98.94117647058829" y="75.82352941176475" as="targetPoint"/>
          </mxGeometry>
        </mxCell>
        <mxCell id="jnVJirCMvpuZ7hxpCEFe-32" value="新组织加入通道审批" style="rounded=0;whiteSpace=wrap;html=1;strokeWidth=2;fontSize=13;fillColor=#d5e8d4;strokeColor=#82b366;" parent="wY5ASRHFbbLCHAGwUMeS-56" vertex="1">
          <mxGeometry x="86" y="106" width="27" height="160" as="geometry"/>
        </mxCell>
        <mxCell id="wY5ASRHFbbLCHAGwUMeS-22" style="edgeStyle=orthogonalEdgeStyle;rounded=0;orthogonalLoop=1;jettySize=auto;html=1;exitX=0.5;exitY=0;exitDx=0;exitDy=0;endArrow=none;endFill=0;strokeWidth=2;fontSize=13;fillColor=#d5e8d4;strokeColor=#82b366;" edge="1" parent="wY5ASRHFbbLCHAGwUMeS-56" source="jnVJirCMvpuZ7hxpCEFe-33">
          <mxGeometry relative="1" as="geometry">
            <mxPoint x="60.11764705882365" y="75.82352941176475" as="targetPoint"/>
          </mxGeometry>
        </mxCell>
        <mxCell id="jnVJirCMvpuZ7hxpCEFe-33" value="新组织申请加入通道" style="rounded=0;whiteSpace=wrap;html=1;strokeWidth=2;fontSize=13;fillColor=#d5e8d4;strokeColor=#82b366;" parent="wY5ASRHFbbLCHAGwUMeS-56" vertex="1">
          <mxGeometry x="46.5" y="106" width="27" height="160" as="geometry"/>
        </mxCell>
        <mxCell id="wY5ASRHFbbLCHAGwUMeS-21" style="edgeStyle=orthogonalEdgeStyle;rounded=0;orthogonalLoop=1;jettySize=auto;html=1;exitX=0.5;exitY=0;exitDx=0;exitDy=0;endArrow=none;endFill=0;strokeWidth=2;fontSize=13;fillColor=#d5e8d4;strokeColor=#82b366;" edge="1" parent="wY5ASRHFbbLCHAGwUMeS-56" source="jnVJirCMvpuZ7hxpCEFe-34">
          <mxGeometry relative="1" as="geometry">
            <mxPoint x="20.11764705882365" y="75.82352941176475" as="targetPoint"/>
          </mxGeometry>
        </mxCell>
        <mxCell id="jnVJirCMvpuZ7hxpCEFe-34" value="创建通道" style="rounded=0;whiteSpace=wrap;html=1;strokeWidth=2;fontSize=13;fillColor=#d5e8d4;strokeColor=#82b366;" parent="wY5ASRHFbbLCHAGwUMeS-56" vertex="1">
          <mxGeometry x="7" y="106" width="27" height="160" as="geometry"/>
        </mxCell>
        <mxCell id="wY5ASRHFbbLCHAGwUMeS-39" value="" style="endArrow=none;html=1;strokeWidth=2;fontSize=13;fillColor=#d5e8d4;strokeColor=#82b366;" edge="1" parent="wY5ASRHFbbLCHAGwUMeS-56">
          <mxGeometry width="50" height="50" relative="1" as="geometry">
            <mxPoint x="19" y="75.5" as="sourcePoint"/>
            <mxPoint x="100" y="75.5" as="targetPoint"/>
          </mxGeometry>
        </mxCell>
        <mxCell id="wY5ASRHFbbLCHAGwUMeS-11" style="edgeStyle=orthogonalEdgeStyle;rounded=0;orthogonalLoop=1;jettySize=auto;html=1;exitX=0.5;exitY=1;exitDx=0;exitDy=0;endArrow=none;endFill=0;strokeWidth=2;fontSize=13;fillColor=#d5e8d4;strokeColor=#82b366;" edge="1" parent="1" source="jnVJirCMvpuZ7hxpCEFe-6">
          <mxGeometry relative="1" as="geometry">
            <mxPoint x="1296.264705882353" y="547.8235294117648" as="targetPoint"/>
          </mxGeometry>
        </mxCell>
        <mxCell id="wY5ASRHFbbLCHAGwUMeS-65" style="edgeStyle=orthogonalEdgeStyle;rounded=0;orthogonalLoop=1;jettySize=auto;html=1;exitX=0.5;exitY=0;exitDx=0;exitDy=0;endArrow=none;endFill=0;strokeWidth=2;fontSize=13;fillColor=#dae8fc;strokeColor=#6c8ebf;" edge="1" parent="1" source="jnVJirCMvpuZ7hxpCEFe-6">
          <mxGeometry relative="1" as="geometry">
            <mxPoint x="1296" y="440" as="targetPoint"/>
          </mxGeometry>
        </mxCell>
        <mxCell id="jnVJirCMvpuZ7hxpCEFe-6" value="智能合约管理" style="rounded=0;whiteSpace=wrap;html=1;strokeWidth=2;fillColor=#dae8fc;strokeColor=#6c8ebf;fontSize=13;" parent="1" vertex="1">
          <mxGeometry x="1236" y="473" width="120" height="45" as="geometry"/>
        </mxCell>
        <mxCell id="wY5ASRHFbbLCHAGwUMeS-10" style="edgeStyle=orthogonalEdgeStyle;rounded=0;orthogonalLoop=1;jettySize=auto;html=1;exitX=0.5;exitY=0;exitDx=0;exitDy=0;endArrow=none;endFill=0;strokeWidth=2;fontSize=13;fillColor=#d5e8d4;strokeColor=#82b366;" edge="1" parent="1" source="jnVJirCMvpuZ7hxpCEFe-25">
          <mxGeometry relative="1" as="geometry">
            <mxPoint x="1413.9117647058824" y="547.8235294117648" as="targetPoint"/>
          </mxGeometry>
        </mxCell>
        <mxCell id="jnVJirCMvpuZ7hxpCEFe-25" value="合约市场" style="rounded=0;whiteSpace=wrap;html=1;strokeWidth=2;fontSize=13;fillColor=#d5e8d4;strokeColor=#82b366;" parent="1" vertex="1">
          <mxGeometry x="1401" y="578" width="27" height="160" as="geometry"/>
        </mxCell>
        <mxCell id="wY5ASRHFbbLCHAGwUMeS-9" style="edgeStyle=orthogonalEdgeStyle;rounded=0;orthogonalLoop=1;jettySize=auto;html=1;exitX=0.5;exitY=0;exitDx=0;exitDy=0;endArrow=none;endFill=0;strokeWidth=2;fontSize=13;fillColor=#d5e8d4;strokeColor=#82b366;" edge="1" parent="1" source="jnVJirCMvpuZ7hxpCEFe-26">
          <mxGeometry relative="1" as="geometry">
            <mxPoint x="1375.0882352941178" y="547.8235294117648" as="targetPoint"/>
          </mxGeometry>
        </mxCell>
        <mxCell id="jnVJirCMvpuZ7hxpCEFe-26" value="智能合约开发IDE" style="rounded=0;whiteSpace=wrap;html=1;strokeWidth=2;fontSize=13;fillColor=#d5e8d4;strokeColor=#82b366;" parent="1" vertex="1">
          <mxGeometry x="1361.5" y="578" width="27" height="160" as="geometry"/>
        </mxCell>
        <mxCell id="wY5ASRHFbbLCHAGwUMeS-8" style="edgeStyle=orthogonalEdgeStyle;rounded=0;orthogonalLoop=1;jettySize=auto;html=1;exitX=0.5;exitY=0;exitDx=0;exitDy=0;endArrow=none;endFill=0;strokeWidth=2;fontSize=13;fillColor=#d5e8d4;strokeColor=#82b366;" edge="1" parent="1" source="jnVJirCMvpuZ7hxpCEFe-27">
          <mxGeometry relative="1" as="geometry">
            <mxPoint x="1335.0882352941178" y="547.8235294117648" as="targetPoint"/>
          </mxGeometry>
        </mxCell>
        <mxCell id="jnVJirCMvpuZ7hxpCEFe-27" value="智能合约的升级" style="rounded=0;whiteSpace=wrap;html=1;strokeWidth=2;fontSize=13;fillColor=#d5e8d4;strokeColor=#82b366;" parent="1" vertex="1">
          <mxGeometry x="1322" y="578" width="27" height="160" as="geometry"/>
        </mxCell>
        <mxCell id="wY5ASRHFbbLCHAGwUMeS-7" style="edgeStyle=orthogonalEdgeStyle;rounded=0;orthogonalLoop=1;jettySize=auto;html=1;exitX=0.5;exitY=0;exitDx=0;exitDy=0;endArrow=none;endFill=0;strokeWidth=2;fontSize=13;fillColor=#d5e8d4;strokeColor=#82b366;" edge="1" parent="1" source="jnVJirCMvpuZ7hxpCEFe-28">
          <mxGeometry relative="1" as="geometry">
            <mxPoint x="1296.264705882353" y="547.8235294117648" as="targetPoint"/>
          </mxGeometry>
        </mxCell>
        <mxCell id="jnVJirCMvpuZ7hxpCEFe-28" value="智能合约的调用" style="rounded=0;whiteSpace=wrap;html=1;strokeWidth=2;fontSize=13;fillColor=#d5e8d4;strokeColor=#82b366;" parent="1" vertex="1">
          <mxGeometry x="1282.5" y="578" width="27" height="160" as="geometry"/>
        </mxCell>
        <mxCell id="wY5ASRHFbbLCHAGwUMeS-6" style="edgeStyle=orthogonalEdgeStyle;rounded=0;orthogonalLoop=1;jettySize=auto;html=1;exitX=0.5;exitY=0;exitDx=0;exitDy=0;endArrow=none;endFill=0;strokeWidth=2;fontSize=13;fillColor=#d5e8d4;strokeColor=#82b366;" edge="1" parent="1" source="jnVJirCMvpuZ7hxpCEFe-29">
          <mxGeometry relative="1" as="geometry">
            <mxPoint x="1256.264705882353" y="547.8235294117648" as="targetPoint"/>
          </mxGeometry>
        </mxCell>
        <mxCell id="jnVJirCMvpuZ7hxpCEFe-29" value="智能合约实例化" style="rounded=0;whiteSpace=wrap;html=1;strokeWidth=2;fontSize=13;fillColor=#d5e8d4;strokeColor=#82b366;" parent="1" vertex="1">
          <mxGeometry x="1243" y="578" width="27" height="160" as="geometry"/>
        </mxCell>
        <mxCell id="wY5ASRHFbbLCHAGwUMeS-5" style="edgeStyle=orthogonalEdgeStyle;rounded=0;orthogonalLoop=1;jettySize=auto;html=1;exitX=0.5;exitY=0;exitDx=0;exitDy=0;endArrow=none;endFill=0;strokeWidth=2;fontSize=13;fillColor=#d5e8d4;strokeColor=#82b366;" edge="1" parent="1" source="jnVJirCMvpuZ7hxpCEFe-30">
          <mxGeometry relative="1" as="geometry">
            <mxPoint x="1217.4411764705883" y="547.8235294117648" as="targetPoint"/>
          </mxGeometry>
        </mxCell>
        <mxCell id="jnVJirCMvpuZ7hxpCEFe-30" value="智能合约安装" style="rounded=0;whiteSpace=wrap;html=1;strokeWidth=2;fontSize=13;fillColor=#d5e8d4;strokeColor=#82b366;" parent="1" vertex="1">
          <mxGeometry x="1203.5" y="578" width="27" height="160" as="geometry"/>
        </mxCell>
        <mxCell id="wY5ASRHFbbLCHAGwUMeS-4" style="edgeStyle=orthogonalEdgeStyle;rounded=0;orthogonalLoop=1;jettySize=auto;html=1;exitX=0.5;exitY=0;exitDx=0;exitDy=0;endArrow=none;endFill=0;strokeWidth=2;fontSize=13;fillColor=#d5e8d4;strokeColor=#82b366;" edge="1" parent="1" source="jnVJirCMvpuZ7hxpCEFe-31">
          <mxGeometry relative="1" as="geometry">
            <mxPoint x="1177.4411764705883" y="547.8235294117648" as="targetPoint"/>
          </mxGeometry>
        </mxCell>
        <mxCell id="jnVJirCMvpuZ7hxpCEFe-31" value="智能合约上传" style="rounded=0;whiteSpace=wrap;html=1;strokeWidth=2;fontSize=13;fillColor=#d5e8d4;strokeColor=#82b366;" parent="1" vertex="1">
          <mxGeometry x="1164" y="578" width="27" height="160" as="geometry"/>
        </mxCell>
        <mxCell id="wY5ASRHFbbLCHAGwUMeS-3" value="" style="endArrow=none;html=1;strokeWidth=2;fontSize=13;fillColor=#d5e8d4;strokeColor=#82b366;" edge="1" parent="1">
          <mxGeometry width="50" height="50" relative="1" as="geometry">
            <mxPoint x="1175.5" y="548" as="sourcePoint"/>
            <mxPoint x="1415.5" y="548" as="targetPoint"/>
          </mxGeometry>
        </mxCell>
        <mxCell id="wY5ASRHFbbLCHAGwUMeS-49" style="edgeStyle=orthogonalEdgeStyle;rounded=0;orthogonalLoop=1;jettySize=auto;html=1;exitX=0.5;exitY=1;exitDx=0;exitDy=0;endArrow=none;endFill=0;strokeWidth=2;fontSize=13;fillColor=#d5e8d4;strokeColor=#82b366;" edge="1" parent="1">
          <mxGeometry relative="1" as="geometry">
            <mxPoint x="467.5" y="553" as="targetPoint"/>
            <mxPoint x="467" y="518" as="sourcePoint"/>
          </mxGeometry>
        </mxCell>
        <mxCell id="wY5ASRHFbbLCHAGwUMeS-60" style="edgeStyle=orthogonalEdgeStyle;rounded=0;orthogonalLoop=1;jettySize=auto;html=1;exitX=0.5;exitY=0;exitDx=0;exitDy=0;endArrow=none;endFill=0;strokeWidth=2;fontSize=13;fillColor=#dae8fc;strokeColor=#6c8ebf;" edge="1" parent="1" source="jnVJirCMvpuZ7hxpCEFe-3">
          <mxGeometry relative="1" as="geometry">
            <mxPoint x="468" y="440" as="targetPoint"/>
          </mxGeometry>
        </mxCell>
        <mxCell id="jnVJirCMvpuZ7hxpCEFe-3" value="平台管理" style="rounded=0;whiteSpace=wrap;html=1;strokeWidth=2;fillColor=#dae8fc;strokeColor=#6c8ebf;fontSize=13;" parent="1" vertex="1">
          <mxGeometry x="408" y="473" width="120" height="45" as="geometry"/>
        </mxCell>
        <mxCell id="jnVJirCMvpuZ7hxpCEFe-58" style="edgeStyle=orthogonalEdgeStyle;rounded=0;orthogonalLoop=1;jettySize=auto;html=1;exitX=0.5;exitY=0;exitDx=0;exitDy=0;strokeWidth=2;fontSize=13;endArrow=none;endFill=0;fillColor=#d5e8d4;strokeColor=#82b366;" parent="1" edge="1">
          <mxGeometry relative="1" as="geometry">
            <mxPoint x="546" y="549" as="targetPoint"/>
            <mxPoint x="546.5" y="579" as="sourcePoint"/>
          </mxGeometry>
        </mxCell>
        <mxCell id="jnVJirCMvpuZ7hxpCEFe-41" value="计费管理" style="rounded=0;whiteSpace=wrap;html=1;strokeWidth=2;fontSize=13;fillColor=#d5e8d4;strokeColor=#82b366;" parent="1" vertex="1">
          <mxGeometry x="533.5" y="579" width="27" height="160" as="geometry"/>
        </mxCell>
        <mxCell id="jnVJirCMvpuZ7hxpCEFe-59" style="edgeStyle=orthogonalEdgeStyle;rounded=0;orthogonalLoop=1;jettySize=auto;html=1;exitX=0.5;exitY=0;exitDx=0;exitDy=0;endArrow=none;endFill=0;strokeWidth=2;fontSize=13;fillColor=#d5e8d4;strokeColor=#82b366;" parent="1" source="jnVJirCMvpuZ7hxpCEFe-42" edge="1">
          <mxGeometry relative="1" as="geometry">
            <mxPoint x="508" y="549" as="targetPoint"/>
          </mxGeometry>
        </mxCell>
        <mxCell id="jnVJirCMvpuZ7hxpCEFe-42" value="系统监控" style="rounded=0;whiteSpace=wrap;html=1;strokeWidth=2;fontSize=13;fillColor=#d5e8d4;strokeColor=#82b366;" parent="1" vertex="1">
          <mxGeometry x="494" y="579" width="27" height="160" as="geometry"/>
        </mxCell>
        <mxCell id="jnVJirCMvpuZ7hxpCEFe-60" style="edgeStyle=orthogonalEdgeStyle;rounded=0;orthogonalLoop=1;jettySize=auto;html=1;exitX=0.5;exitY=0;exitDx=0;exitDy=0;endArrow=none;endFill=0;strokeWidth=2;fontSize=13;fillColor=#d5e8d4;strokeColor=#82b366;" parent="1" source="jnVJirCMvpuZ7hxpCEFe-43" edge="1">
          <mxGeometry relative="1" as="geometry">
            <mxPoint x="468" y="549" as="targetPoint"/>
          </mxGeometry>
        </mxCell>
        <mxCell id="jnVJirCMvpuZ7hxpCEFe-43" value="网络仪表盘" style="rounded=0;whiteSpace=wrap;html=1;strokeWidth=2;fontSize=13;fillColor=#d5e8d4;strokeColor=#82b366;" parent="1" vertex="1">
          <mxGeometry x="454.5" y="579" width="27" height="160" as="geometry"/>
        </mxCell>
        <mxCell id="jnVJirCMvpuZ7hxpCEFe-61" style="edgeStyle=orthogonalEdgeStyle;rounded=0;orthogonalLoop=1;jettySize=auto;html=1;exitX=0.5;exitY=0;exitDx=0;exitDy=0;endArrow=none;endFill=0;strokeWidth=2;fontSize=13;fillColor=#d5e8d4;strokeColor=#82b366;" parent="1" source="jnVJirCMvpuZ7hxpCEFe-44" edge="1">
          <mxGeometry relative="1" as="geometry">
            <mxPoint x="429" y="549" as="targetPoint"/>
          </mxGeometry>
        </mxCell>
        <mxCell id="jnVJirCMvpuZ7hxpCEFe-44" value="平台用户管理" style="rounded=0;whiteSpace=wrap;html=1;strokeWidth=2;fontSize=13;fillColor=#d5e8d4;strokeColor=#82b366;" parent="1" vertex="1">
          <mxGeometry x="415" y="579" width="27" height="160" as="geometry"/>
        </mxCell>
        <mxCell id="jnVJirCMvpuZ7hxpCEFe-62" style="edgeStyle=orthogonalEdgeStyle;rounded=0;orthogonalLoop=1;jettySize=auto;html=1;exitX=0.5;exitY=0;exitDx=0;exitDy=0;endArrow=none;endFill=0;strokeWidth=2;fontSize=13;fillColor=#d5e8d4;strokeColor=#82b366;" parent="1" source="jnVJirCMvpuZ7hxpCEFe-46" edge="1">
          <mxGeometry relative="1" as="geometry">
            <mxPoint x="389" y="549" as="targetPoint"/>
          </mxGeometry>
        </mxCell>
        <mxCell id="jnVJirCMvpuZ7hxpCEFe-46" value="角色管理" style="rounded=0;whiteSpace=wrap;html=1;strokeWidth=2;fontSize=13;fillColor=#d5e8d4;strokeColor=#82b366;" parent="1" vertex="1">
          <mxGeometry x="375.5" y="579" width="27" height="160" as="geometry"/>
        </mxCell>
        <mxCell id="jnVJirCMvpuZ7hxpCEFe-57" value="" style="endArrow=none;html=1;strokeWidth=2;fontSize=13;fillColor=#d5e8d4;strokeColor=#82b366;" parent="1" edge="1">
          <mxGeometry width="50" height="50" relative="1" as="geometry">
            <mxPoint x="388" y="549" as="sourcePoint"/>
            <mxPoint x="548" y="549" as="targetPoint"/>
          </mxGeometry>
        </mxCell>
        <mxCell id="wY5ASRHFbbLCHAGwUMeS-59" style="edgeStyle=orthogonalEdgeStyle;rounded=0;orthogonalLoop=1;jettySize=auto;html=1;exitX=0.5;exitY=0;exitDx=0;exitDy=0;endArrow=none;endFill=0;strokeWidth=2;fontSize=13;fillColor=#dae8fc;strokeColor=#6c8ebf;" edge="1" parent="1" source="jnVJirCMvpuZ7hxpCEFe-7">
          <mxGeometry relative="1" as="geometry">
            <mxPoint x="310" y="440" as="targetPoint"/>
          </mxGeometry>
        </mxCell>
        <mxCell id="wY5ASRHFbbLCHAGwUMeS-61" style="edgeStyle=orthogonalEdgeStyle;rounded=0;orthogonalLoop=1;jettySize=auto;html=1;exitX=0.5;exitY=0;exitDx=0;exitDy=0;endArrow=none;endFill=0;strokeWidth=2;fontSize=13;fillColor=#dae8fc;strokeColor=#6c8ebf;" edge="1" parent="1" source="jnVJirCMvpuZ7hxpCEFe-8">
          <mxGeometry relative="1" as="geometry">
            <mxPoint x="626" y="440" as="targetPoint"/>
          </mxGeometry>
        </mxCell>
        <mxCell id="wY5ASRHFbbLCHAGwUMeS-62" style="edgeStyle=orthogonalEdgeStyle;rounded=0;orthogonalLoop=1;jettySize=auto;html=1;exitX=0.5;exitY=0;exitDx=0;exitDy=0;endArrow=none;endFill=0;strokeWidth=2;fontSize=13;fillColor=#dae8fc;strokeColor=#6c8ebf;" edge="1" parent="1" source="jnVJirCMvpuZ7hxpCEFe-10">
          <mxGeometry relative="1" as="geometry">
            <mxPoint x="782" y="440" as="targetPoint"/>
          </mxGeometry>
        </mxCell>
        <mxCell id="wY5ASRHFbbLCHAGwUMeS-63" style="edgeStyle=orthogonalEdgeStyle;rounded=0;orthogonalLoop=1;jettySize=auto;html=1;exitX=0.5;exitY=0;exitDx=0;exitDy=0;endArrow=none;endFill=0;strokeWidth=2;fontSize=13;fillColor=#dae8fc;strokeColor=#6c8ebf;" edge="1" parent="1" source="jnVJirCMvpuZ7hxpCEFe-5">
          <mxGeometry relative="1" as="geometry">
            <mxPoint x="940" y="440" as="targetPoint"/>
          </mxGeometry>
        </mxCell>
        <mxCell id="wY5ASRHFbbLCHAGwUMeS-64" style="edgeStyle=orthogonalEdgeStyle;rounded=0;orthogonalLoop=1;jettySize=auto;html=1;exitX=0.5;exitY=0;exitDx=0;exitDy=0;endArrow=none;endFill=0;strokeWidth=2;fontSize=13;fillColor=#dae8fc;strokeColor=#6c8ebf;" edge="1" parent="1" source="jnVJirCMvpuZ7hxpCEFe-9">
          <mxGeometry relative="1" as="geometry">
            <mxPoint x="1100" y="440" as="targetPoint"/>
          </mxGeometry>
        </mxCell>
      </root>
    </mxGraphModel>
  </diagram>
</mxfile>
